<?xml version="1.0" encoding="UTF-8" standalone="no"?><!DOCTYPE svg PUBLIC "-//W3C//DTD SVG 1.1//EN" "http://www.w3.org/Graphics/SVG/1.1/DTD/svg11.dtd"><svg width="100%" height="100%" viewBox="0 0 146 146" version="1.1" xmlns="http://www.w3.org/2000/svg" xmlns:xlink="http://www.w3.org/1999/xlink" xml:space="preserve" style="fill-rule:evenodd;clip-rule:evenodd;stroke-linejoin:round;stroke-miterlimit:1.41421;"><g><g id="Medium-Logo"><path d="M145.451,16.144c0,-9 -7.297,-16.297 -16.297,-16.297c-28.031,0 -85.056,0 -113.087,0c-9,0 -16.296,7.297 -16.296,16.297c0,28.031 0,85.056 0,113.087c0,9 7.296,16.296 16.296,16.296c28.031,0 85.056,0 113.087,0c9,0 16.297,-7.296 16.297,-16.296c0,-28.031 0,-85.056 0,-113.087Z" style="fill:#f8f8f8;"/></g><path d="M14.913,72.687c0,-15.927 5.634,-29.525 16.904,-40.794c11.268,-11.269 24.867,-16.903 40.794,-16.903c15.926,0 29.524,5.634 40.794,16.903c11.269,11.269 16.903,24.867 16.903,40.794c0,15.927 -5.634,29.525 -16.903,40.794c-11.269,11.269 -24.867,16.904 -40.794,16.904c-15.927,0 -29.526,-5.634 -40.794,-16.904c-11.27,-11.269 -16.904,-24.867 -16.904,-40.794Zm6.31,0c0,14.124 5.034,26.22 15.101,36.287c10.067,10.067 22.163,15.1 36.287,15.1c14.124,0 26.219,-5.033 36.286,-15.1c10.067,-10.067 15.101,-22.163 15.101,-36.287c0,-14.124 -5.034,-26.219 -15.101,-36.286c-10.067,-10.067 -22.163,-15.101 -36.286,-15.101c-14.124,0 -26.22,5.034 -36.287,15.101c-10.067,10.067 -15.101,22.162 -15.101,36.286Zm16.228,12.396c-0.3,-0.3 -0.3,-0.601 0,-0.901c0.601,-0.601 1.352,-0.827 2.254,-0.676c0.901,0.15 1.427,0.3 1.577,0.45c1.052,0.451 2.217,1.465 3.494,3.043c1.277,1.578 2.291,2.667 3.042,3.268c3.607,3.005 7.288,3.231 11.044,0.676c0.301,-1.052 0.789,-1.953 1.465,-2.704c0.676,-0.752 1.315,-1.278 1.916,-1.578c0.601,-0.301 1.653,-0.751 3.155,-1.352c-4.958,-0.451 -8.977,-1.315 -12.058,-2.592c-3.08,-1.278 -5.522,-2.893 -7.325,-4.846c-2.404,-2.705 -3.869,-6.236 -4.395,-10.593c-0.526,-4.357 -0.188,-8.339 1.015,-11.945c0.901,-2.254 2.178,-4.282 3.831,-6.085c-1.202,-3.757 -0.977,-8.039 0.676,-12.847c4.808,0.3 9.166,1.953 13.072,4.958c7.513,-1.953 15.326,-2.028 23.44,-0.225c1.052,-0.751 2.667,-1.691 4.845,-2.818c2.179,-1.126 4.921,-1.765 8.227,-1.915c0.601,1.652 1.014,3.606 1.24,5.86c0.225,2.253 0.112,4.357 -0.338,6.31c3.455,3.606 5.258,8.415 5.409,14.425c0,4.808 -0.827,8.79 -2.479,11.945c-1.653,3.155 -4.583,5.785 -8.79,7.888c-2.855,1.353 -6.612,2.179 -11.269,2.479c2.103,1.052 3.643,2.142 4.62,3.268c0.977,1.127 1.615,2.893 1.916,5.297l0,7.1l0.225,6.874c0.451,0.751 0.977,1.39 1.578,1.916c0.601,0.525 1.127,0.901 1.578,1.126c0.45,0.226 0.601,0.564 0.45,1.015c-0.15,0.45 -0.751,0.676 -1.803,0.676c-2.554,0 -4.582,-0.902 -6.085,-2.705c-0.451,-0.751 -0.676,-1.653 -0.676,-2.704l0,-10.819c0,-1.202 -0.301,-2.066 -0.902,-2.592c-0.601,-0.526 -1.202,-0.864 -1.803,-1.014l0,14.199c0,2.554 0.301,4.207 0.902,4.958c0.601,0.752 0.976,1.503 1.127,2.254c0.15,0.151 0.037,0.263 -0.338,0.338c-0.376,0.075 -1.014,-0.037 -1.916,-0.338c-1.953,-0.45 -3.306,-1.465 -4.057,-3.042c-0.751,-1.578 -1.127,-3.268 -1.127,-5.072l0,-13.973l-2.93,0l0,13.974c0,1.803 -0.376,3.531 -1.127,5.184c-1.052,2.103 -3.005,3.23 -5.86,3.38c-0.45,-0.15 -0.676,-0.3 -0.676,-0.45c0.15,-0.151 0.601,-0.902 1.352,-2.254c0.151,-0.301 0.339,-0.902 0.564,-1.803c0.226,-0.902 0.338,-1.954 0.338,-3.156l0,-14.199c-0.601,0.151 -1.164,0.489 -1.69,1.015c-0.526,0.526 -0.789,1.389 -0.789,2.592l0,10.818c0,1.051 -0.226,1.953 -0.676,2.704c-1.353,1.803 -3.381,2.705 -6.086,2.705c-1.051,0 -1.652,-0.225 -1.803,-0.676c-0.15,-0.301 -0.112,-0.564 0.113,-0.789c0.226,-0.225 0.564,-0.488 1.014,-0.789c0.451,-0.3 0.752,-0.526 0.902,-0.676c0.601,-0.451 1.052,-1.052 1.352,-1.803c0.451,-0.601 0.564,-2.179 0.338,-4.733c-0.225,-2.554 -0.263,-4.207 -0.112,-4.958c-3.907,1.352 -7.889,0.676 -11.946,-2.029c-1.202,-1.202 -2.404,-2.93 -3.606,-5.184c-0.901,-1.653 -2.704,-3.606 -5.409,-5.86l0,0Z" style="fill-rule:nonzero;"/></g></svg>