<?xml version="1.0" encoding="UTF-8" standalone="no"?><!DOCTYPE svg PUBLIC "-//W3C//DTD SVG 1.1//EN" "http://www.w3.org/Graphics/SVG/1.1/DTD/svg11.dtd"><svg width="100%" height="100%" viewBox="0 0 605 605" version="1.1" xmlns="http://www.w3.org/2000/svg" xmlns:xlink="http://www.w3.org/1999/xlink" xml:space="preserve" style="fill-rule:evenodd;clip-rule:evenodd;stroke-linejoin:round;stroke-miterlimit:1.41421;"><g id="Medium-Logo"><path d="M607,66.902c0,-37.501 -30.401,-67.902 -67.902,-67.902c-116.795,0 -354.401,0 -471.196,0c-37.501,0 -67.902,30.401 -67.902,67.902c0,116.795 0,354.401 0,471.196c0,37.501 30.401,67.902 67.902,67.902c116.795,0 354.401,0 471.196,0c37.501,0 67.902,-30.401 67.902,-67.902c0,-116.795 0,-354.401 0,-471.196Z" style="fill:#f8f8f8;"/></g><path d="M364.643,121.858c-6.265,-19.286 -26.98,-29.84 -46.263,-23.572c-19.286,6.265 -29.84,26.98 -23.572,46.263l94.937,292.097c6.519,18.017 25.981,28.141 44.663,22.765c19.488,-5.61 31.366,-26.307 25.148,-45.445l-94.913,-292.108" style="fill:#dfa22f;fill-rule:nonzero;"/><path d="M217.539,169.656c-6.269,-19.285 -26.982,-29.839 -46.265,-23.574c-19.288,6.267 -29.843,26.98 -23.573,46.266l94.938,292.099c6.518,18.015 25.981,28.141 44.664,22.76c19.486,-5.606 31.364,-26.304 25.145,-45.445l-94.909,-292.106" style="fill:#3cb187;fill-rule:nonzero;"/><path d="M484.142,363.773c19.286,-6.265 29.837,-26.976 23.572,-46.264c-6.265,-19.283 -26.98,-29.839 -46.263,-23.572l-292.097,94.94c-18.017,6.516 -28.141,25.978 -22.765,44.66c5.61,19.486 26.307,31.366 45.445,25.147l292.108,-94.909" style="fill:#ce1e5b;fill-rule:nonzero;"/><path d="M230.233,446.274l69.812,-22.683l-22.686,-69.821l-69.817,22.693l22.691,69.812" style="fill:#392538;fill-rule:nonzero;"/><path d="M377.339,398.474c26.393,-8.573 50.925,-16.545 69.814,-22.683l-22.69,-69.833l-69.817,22.692l22.693,69.824" style="fill:#bb242a;fill-rule:nonzero;"/><path d="M436.344,216.668c19.285,-6.266 29.839,-26.979 23.574,-46.267c-6.265,-19.283 -26.98,-29.837 -46.266,-23.572l-292.099,94.942c-18.015,6.513 -28.141,25.977 -22.76,44.659c5.606,19.484 26.304,31.364 45.445,25.145l292.106,-94.909" style="fill:#72c5cd;fill-rule:nonzero;"/><path d="M182.422,299.171c19.013,-6.178 43.525,-14.144 69.824,-22.686c-8.573,-26.397 -16.545,-50.929 -22.683,-69.821l-69.833,22.696l22.692,69.811" style="fill:#248c73;fill-rule:nonzero;"/><path d="M329.526,251.375l69.827,-22.69c-7.562,-23.278 -15.126,-46.555 -22.691,-69.833l-69.828,22.696l22.692,69.827" style="fill:#62803a;fill-rule:nonzero;"/></svg>